<?xml version="1.0" standalone="no"?>
<!DOCTYPE svg PUBLIC "-//W3C//DTD SVG 20010904//EN"
 "http://www.w3.org/TR/2001/REC-SVG-20010904/DTD/svg10.dtd">
<svg version="1.0" xmlns="http://www.w3.org/2000/svg"
 width="410.000000pt" height="410.000000pt" viewBox="0 0 410.000000 410.000000"
 preserveAspectRatio="xMidYMid meet">
<metadata>
Created by potrace 1.14, written by Peter Selinger 2001-2017
</metadata>
<g transform="translate(0.000000,410.000000) scale(0.100000,-0.100000)"
fill="#000000" stroke="none">
<path d="M2144 3830 c-111 -63 -158 -140 -159 -262 0 -42 3 -79 7 -83 7 -7 92
21 113 36 16 12 168 38 257 44 46 3 114 2 151 -3 41 -5 70 -5 74 1 11 17 -21
92 -56 133 -47 54 -66 77 -86 108 -22 34 -94 56 -179 56 -60 0 -79 -5 -122
-30z"/>
<path d="M2245 3284 c-221 -47 -310 -131 -225 -216 37 -36 71 -35 166 5 40 18
88 28 145 33 l84 6 68 66 c37 37 67 70 67 73 0 24 -231 48 -305 33z"/>
<path d="M1408 2863 c-243 -259 -297 -324 -397 -478 -185 -283 -303 -619 -340
-967 -6 -54 -11 -221 -11 -373 l0 -275 871 0 871 0 -7 32 c-15 69 -66 138
-124 167 -20 10 -198 72 -396 136 -408 134 -386 121 -455 260 -55 110 -73 202
-67 340 5 104 37 245 55 245 4 0 112 -95 240 -210 128 -116 237 -210 243 -210
5 0 19 19 29 43 24 51 26 134 5 184 -8 20 -101 185 -205 368 -184 322 -190
334 -201 411 -22 155 4 325 71 472 21 45 37 82 35 82 -2 0 -100 -102 -217
-227z"/>
<path d="M2507 2993 c-4 -3 -7 -33 -7 -65 l0 -58 54 0 c37 0 58 5 67 16 16 19
1 48 -27 52 -11 2 -25 16 -31 32 -11 28 -40 40 -56 23z"/>
<path d="M3240 2968 c0 -8 10 -50 21 -94 28 -104 31 -315 6 -417 -10 -38 -14
-73 -11 -79 10 -15 103 1 161 29 101 47 163 148 163 264 0 161 -119 292 -279
306 -50 5 -61 3 -61 -9z"/>
<path d="M2830 2902 l-63 -57 17 -66 c20 -81 21 -167 1 -242 -20 -77 -19 -99
5 -130 27 -34 70 -43 109 -23 38 20 40 24 62 110 23 87 25 220 4 301 -19 74
-55 165 -65 165 -4 0 -36 -26 -70 -58z"/>
<path d="M2585 2239 c-39 -115 -45 -143 -34 -150 25 -16 82 -29 167 -39 100
-12 196 -43 264 -84 89 -53 80 -59 -88 -55 -82 1 -204 -1 -271 -6 -116 -8
-121 -9 -126 -31 -2 -13 -3 -25 -1 -27 8 -8 153 14 194 29 25 8 83 18 130 21
l85 5 -36 -26 c-57 -39 -157 -87 -232 -111 l-68 -22 -2 -160 -3 -160 41 17
c22 10 148 68 280 129 198 91 246 118 276 151 36 39 59 100 59 154 0 25 2 26
58 26 32 0 82 -7 112 -15 73 -20 135 -33 188 -38 41 -5 42 -4 42 24 l0 29 -76
0 c-41 0 -105 5 -142 10 -41 7 -101 8 -152 3 -106 -10 -173 -6 -167 10 6 19
101 72 171 95 36 12 103 26 148 31 88 11 181 38 176 51 -2 5 -23 70 -48 144
-40 122 -47 136 -65 131 -19 -5 -49 -11 -190 -36 -75 -13 -158 -52 -185 -86
-18 -23 -20 -40 -20 -184 0 -99 -4 -159 -10 -159 -6 0 -10 57 -10 150 0 115
-4 158 -15 180 -22 43 -127 89 -241 106 -52 8 -105 19 -119 24 -15 6 -30 10
-35 10 -5 0 -30 -64 -55 -141z"/>
<path d="M2519 2043 c-5 -13 -9 -26 -9 -28 0 -9 137 -25 216 -25 49 0 114 -7
144 -15 67 -18 72 -18 40 0 -35 19 -133 42 -210 50 -36 3 -89 14 -118 24 l-53
18 -10 -24z"/>
<path d="M3525 2044 c-27 -7 -77 -16 -110 -20 -74 -7 -171 -31 -205 -49 -31
-17 -25 -18 20 -4 19 6 100 15 180 19 164 9 201 18 193 49 -6 24 -10 24 -78 5z"/>
<path d="M2504 1964 c-4 -14 -3 -28 1 -32 3 -4 37 -6 73 -5 37 1 129 3 205 5
133 3 137 4 95 16 -23 8 -100 16 -171 18 -70 2 -143 8 -162 13 -32 9 -35 8
-41 -15z"/>
<path d="M3569 1975 c-3 -2 -68 -6 -144 -9 -80 -3 -159 -11 -185 -19 -45 -14
-45 -14 42 -9 47 3 123 -1 167 -8 44 -7 100 -9 124 -6 40 6 44 9 39 31 -4 22
-30 34 -43 20z"/>
<path d="M2426 1105 l-48 -76 36 -39 c47 -53 76 -111 83 -171 l6 -49 298 0
c340 0 312 -9 283 89 -11 38 -29 67 -62 100 -44 43 -61 51 -293 134 -135 48
-248 87 -250 87 -3 0 -27 -34 -53 -75z"/>
<path d="M2907 641 c-4 -19 -7 -71 -7 -117 0 -88 -13 -111 -25 -46 -6 31 -9
34 -15 17 -5 -11 -9 -37 -9 -57 -1 -40 -14 -50 -26 -20 -6 16 -7 16 -19 0 -18
-25 -26 -22 -26 6 0 37 -19 42 -26 7 -8 -39 -24 -30 -24 12 0 44 -15 66 -23
35 -4 -12 -7 -33 -7 -46 0 -32 -16 -19 -25 20 l-8 33 -10 -42 c-9 -38 -27 -60
-27 -33 0 21 -18 9 -30 -19 -9 -23 -9 -33 2 -50 14 -22 28 -28 28 -11 0 6 4
10 9 10 5 0 12 -21 16 -47 8 -49 9 -48 30 12 8 22 10 18 20 -39 8 -46 25 -32
25 22 0 38 17 43 26 7 7 -30 24 -23 24 10 0 32 17 41 26 13 l6 -21 12 22 c15
27 26 18 27 -23 1 -17 4 -42 9 -56 7 -23 8 -21 15 17 11 64 25 41 25 -40 0
-40 3 -103 7 -142 l7 -70 7 45 c4 25 8 75 8 112 1 91 17 94 27 5 7 -69 8 -71
15 -32 4 22 8 63 8 92 1 69 17 76 26 10 7 -44 9 -48 15 -27 5 14 8 42 9 62 1
40 21 64 21 26 0 -13 5 -30 10 -38 7 -11 11 -4 16 28 8 50 18 53 31 10 l10
-33 8 38 c6 33 25 53 25 27 0 -5 7 -10 15 -10 8 0 15 5 15 10 0 19 19 10 26
-12 l6 -21 13 23 c17 33 64 34 78 2 l11 -23 12 22 c11 21 12 20 19 -22 12 -82
17 -88 30 -39 l12 45 7 -75 c4 -41 10 -93 13 -115 l7 -40 7 50 c4 28 8 78 8
113 1 34 5 62 11 62 6 0 10 -10 10 -22 0 -13 4 -29 9 -37 6 -10 11 3 16 42 8
60 18 73 29 35 9 -34 26 -3 26 47 0 50 -15 78 -25 46 -11 -36 -22 -23 -32 37
l-10 57 -8 -42 c-11 -61 -25 -53 -26 15 -1 31 -4 84 -8 117 l-7 60 -7 -50 c-3
-27 -9 -79 -13 -115 l-7 -65 -12 45 c-12 48 -17 43 -30 -34 -6 -35 -7 -37 -20
-20 -14 18 -15 18 -20 -1 -10 -33 -69 -29 -82 5 l-10 25 -8 -27 c-7 -27 -25
-39 -25 -18 0 6 -7 10 -15 10 -8 0 -15 -4 -15 -10 0 -26 -19 -6 -25 28 l-8 37
-10 -32 c-13 -44 -23 -41 -32 10 -6 35 -8 38 -15 22 -5 -11 -9 -30 -9 -42 -2
-42 -21 -24 -22 20 -1 23 -5 56 -8 72 -7 28 -8 26 -15 -22 -10 -66 -26 -69
-27 -5 0 26 -4 67 -8 92 l-7 45 -8 -72 c-4 -40 -12 -70 -17 -67 -5 3 -9 38
-10 77 0 40 -4 81 -8 92 -7 16 -9 14 -14 -14z"/>
<path d="M1418 605 c-4 -27 -10 -79 -14 -115 l-7 -65 -12 45 -12 45 -7 -40
c-14 -77 -16 -79 -32 -58 -13 17 -14 17 -20 -5 -5 -17 -11 -21 -26 -16 -12 4
-24 1 -28 -7 -6 -9 -13 -2 -23 22 l-14 34 -8 -27 c-4 -16 -11 -28 -16 -28 -5
0 -9 12 -10 28 0 15 -4 36 -9 47 -7 16 -9 13 -15 -22 -8 -43 -18 -53 -31 -31
-10 15 -34 -19 -34 -48 0 -29 22 -48 38 -32 12 12 11 14 30 -52 l9 -35 8 43
c9 50 21 61 31 30 l6 -21 13 23 c17 33 64 34 78 2 l11 -23 12 22 c11 22 12 22
18 -9 3 -18 9 -47 13 -64 l6 -33 12 45 12 45 7 -65 c4 -36 10 -87 13 -115 l7
-50 7 45 c4 25 8 66 8 93 1 49 20 67 22 20 0 -16 4 -37 8 -48 6 -14 11 1 18
55 9 73 14 76 28 15 7 -27 8 -28 15 -10 5 11 9 35 9 53 1 17 5 32 10 32 5 0
12 -15 16 -32 l7 -33 10 35 c17 61 20 66 25 53 8 -23 33 -14 33 11 0 32 -16
42 -29 19 -11 -20 -13 -17 -29 47 l-9 35 -7 -32 c-11 -48 -23 -40 -31 18 -8
54 -25 51 -25 -3 0 -55 -17 -26 -27 45 l-9 72 -8 -52 c-5 -29 -12 -53 -16 -53
-4 0 -11 44 -16 98 -9 93 -10 95 -16 47z"/>
<path d="M917 536 c-4 -27 -7 -62 -7 -77 0 -44 -16 -35 -25 14 -7 38 -8 40
-15 17 -5 -14 -8 -40 -9 -57 -1 -37 -8 -41 -27 -15 -13 16 -14 15 -20 -6 -4
-14 -12 -21 -20 -18 -7 3 -20 -1 -28 -9 -13 -13 -16 -11 -27 20 l-13 35 -12
-28 -11 -27 -7 30 c-16 66 -23 73 -30 28 -8 -42 -20 -55 -29 -30 -5 12 -19 0
-31 -28 -3 -6 -9 -4 -14 4 -14 19 -32 5 -32 -25 0 -24 30 -36 30 -11 1 6 10 1
22 -13 14 -16 22 -21 25 -12 9 25 21 11 28 -35 8 -51 16 -45 30 22 l7 30 12
-23 12 -23 10 22 c7 14 20 22 41 24 27 2 32 -2 38 -24 l7 -26 12 23 c15 28 26
19 27 -22 1 -17 4 -42 9 -56 7 -23 8 -21 15 18 9 52 25 55 26 5 0 -21 4 -56 8
-78 l8 -40 7 50 c4 28 10 66 13 85 l6 35 10 -45 c8 -37 11 -41 18 -25 4 11 8
34 8 52 1 38 17 52 26 23 9 -28 21 -17 29 25 4 22 2 44 -7 62 -14 26 -15 26
-21 5 -11 -33 -26 -27 -27 11 -1 17 -4 43 -8 57 -6 22 -8 20 -14 -18 -9 -55
-27 -45 -28 16 -1 26 -4 61 -8 77 -6 28 -7 27 -14 -19z"/>
<path d="M1918 560 c-4 -8 -10 -44 -15 -80 l-10 -65 -8 43 c-4 23 -11 42 -15
42 -5 0 -11 -23 -15 -52 -7 -48 -9 -50 -22 -33 -13 19 -14 19 -19 -3 -8 -29
-18 -28 -31 6 -11 27 -11 27 -18 5 -11 -34 -21 -28 -32 20 -10 42 -15 39 -28
-17 -6 -26 -7 -27 -19 -10 -13 17 -14 17 -25 -4 -14 -26 -14 -53 0 -89 l11
-28 12 24 c13 23 13 22 26 -25 l13 -49 13 50 c10 42 13 46 19 28 9 -28 22 -29
30 -3 7 23 25 27 25 5 0 -20 17 -19 28 1 7 13 11 2 16 -40 7 -54 26 -79 26
-33 0 12 4 28 9 36 6 9 11 -8 16 -50 11 -93 19 -94 31 -4 9 67 12 75 18 50 15
-59 19 -59 30 0 10 49 13 56 20 38 21 -62 48 16 30 85 -4 12 -10 22 -14 22 -4
0 -11 -10 -14 -22 -7 -22 -7 -22 -16 -3 -5 11 -9 35 -9 53 -1 37 -21 35 -21
-2 0 -12 -3 -26 -7 -30 -5 -4 -13 27 -19 71 -6 43 -13 71 -16 63z"/>
<path d="M2405 495 c-5 -49 -11 -72 -16 -64 -5 8 -9 26 -9 42 0 44 -18 31 -26
-19 -7 -47 -24 -44 -24 4 0 37 -18 25 -25 -18 -8 -45 -19 -52 -29 -17 l-7 22
-11 -25 c-10 -24 -10 -24 -18 -5 -5 11 -9 35 -9 53 -1 47 -16 39 -28 -15 l-10
-48 -8 33 c-10 42 -22 41 -31 -3 -6 -36 -18 -45 -27 -22 -4 9 -8 8 -16 -3 -13
-19 -14 -60 -1 -80 9 -13 11 -13 19 0 13 19 16 14 28 -35 l10 -40 15 35 15 35
8 -48 c4 -26 11 -47 15 -47 4 0 11 26 15 57 7 51 9 55 18 36 5 -13 13 -23 17
-23 4 0 11 10 15 23 6 18 9 14 19 -28 10 -40 14 -46 20 -30 23 61 23 61 30 12
8 -51 26 -65 26 -19 0 59 15 41 26 -30 12 -80 18 -76 31 22 l10 65 8 -45 c9
-49 18 -40 31 35 6 37 7 38 17 18 5 -13 13 -23 18 -23 14 0 20 76 9 105 l-12
30 -12 -23 c-15 -28 -26 -19 -27 22 0 17 -4 40 -8 51 -6 15 -9 10 -16 -25 -7
-41 -8 -42 -15 -20 -5 14 -9 43 -9 65 -2 77 -19 71 -26 -10z"/>
<path d="M1060 365 c0 -16 6 -25 15 -25 9 0 15 9 15 25 0 16 -6 25 -15 25 -9
0 -15 -9 -15 -25z"/>
<path d="M2060 365 c0 -17 5 -25 13 -22 6 2 12 12 12 22 0 10 -6 20 -12 23 -8
2 -13 -6 -13 -23z"/>
<path d="M2554 375 c-3 -8 -3 -19 1 -25 11 -18 25 -11 25 15 0 27 -17 34 -26
10z"/>
</g>
</svg>
